<svg width="297" height="82" viewBox="0 0 297 82" fill="none" xmlns="http://www.w3.org/2000/svg">
<path d="M68.9812 29.1737C69.4535 29.6475 69.9553 30.1805 70.4866 30.7727C71.077 31.3057 71.6083 31.8683 72.0805 32.4605C72.6118 32.9935 73.0251 33.5561 73.3203 34.1484C73.6745 34.6814 73.8516 35.1551 73.8516 35.5697C73.8516 36.991 73.0546 38.1163 71.4607 38.9454C69.8668 39.7153 68.0957 40.1594 66.1476 40.2779C65.3802 40.3371 64.5242 40.3667 63.5796 40.3667C62.6351 40.3667 61.6905 40.3667 60.746 40.3667V40.9885C60.6279 42.0545 60.3623 43.239 59.949 44.5419C59.5948 45.8448 59.093 47.1773 58.4437 48.5394C57.8533 49.8423 57.1449 51.1155 56.3184 52.3592C55.492 53.6029 54.6065 54.7577 53.6619 55.8237C55.551 57.3043 57.0269 59.0217 58.0895 60.976C59.2111 62.9304 59.7129 65.1512 59.5948 67.6385C59.5358 69.4744 58.9455 71.2215 57.8238 72.8797C56.7612 74.5379 55.2853 75.9889 53.3963 77.2325C51.5662 78.5354 49.3524 79.5718 46.7549 80.3417C44.2165 81.1116 41.4123 81.4965 38.3426 81.4965C35.4499 81.4965 32.5867 81.1116 29.7531 80.3417C26.9785 79.631 24.44 78.5947 22.1377 77.2325C19.8944 75.9296 18.0644 74.3603 16.6475 72.5244C15.2898 70.7477 14.5813 68.7638 14.5223 66.5725C14.4633 64.4405 14.9651 62.4862 16.0277 60.7095C17.1493 58.8736 18.5957 57.3043 20.3667 56.0014C22.1377 54.6985 24.1154 53.6621 26.2996 52.8922C28.5429 52.0631 30.7272 51.5597 32.8524 51.382C33.3837 51.0267 34.2397 50.7306 35.4204 50.4937C36.6011 50.2568 37.6932 50.1976 38.6968 50.316C41.1172 50.5529 43.449 51.0267 45.6923 51.7374C47.9356 52.448 50.0018 53.3956 51.8909 54.58C51.0644 53.0995 50.415 51.5597 49.9428 49.9607C49.5295 48.3617 49.2048 46.6739 48.9687 44.8972C46.9025 45.6671 44.8363 46.2593 42.7701 46.6739C40.763 47.0292 38.3721 47.2661 35.5975 47.3845C32.7048 47.5622 29.8417 47.7399 27.008 47.9175C24.2334 48.036 21.6359 48.1544 19.2155 48.2729C16.7951 48.3321 14.6109 48.3913 12.6627 48.4505C10.7736 48.4505 9.26828 48.3913 8.14663 48.2729C7.32016 48.1544 6.34609 47.9175 5.22445 47.5622C4.16183 47.1476 3.36487 46.6146 2.83357 45.9632C1.65288 44.5419 0.914958 43.0317 0.619788 41.4327C0.560754 41.0774 0.590271 40.6924 0.708339 40.2779C0.826407 39.8041 1.00351 39.3895 1.23965 39.0342C1.47578 38.6789 1.74144 38.3828 2.03661 38.1459C2.33178 37.909 2.65646 37.7905 3.01067 37.7905C4.19135 37.909 5.57865 37.9682 7.17257 37.9682C8.82553 37.9682 10.5965 37.9682 12.4856 37.9682C12.4856 36.9614 12.4856 35.8954 12.4856 34.7702C12.5447 33.645 12.5447 32.8455 12.4856 32.3717C12.4266 31.4834 12.3381 30.8023 12.22 30.3285C12.161 29.7955 11.9838 29.2329 11.6887 28.6407C11.2164 27.4563 11.5116 26.5679 12.5742 25.9757C13.2826 25.6204 14.05 25.3243 14.8765 25.0874C15.762 24.7913 16.6475 24.6136 17.5331 24.5544C18.4186 24.4359 19.2746 24.4063 20.101 24.4655C20.9865 24.5248 21.754 24.6728 22.4034 24.9097C23.2889 25.2058 23.8497 25.6796 24.0858 26.331C24.381 26.9825 24.4696 27.7228 24.3515 28.5519C24.3515 28.7295 24.322 29.1737 24.2629 29.8844C24.2039 30.5358 24.1449 31.3057 24.0858 32.194C24.0268 33.0824 23.9382 34.0299 23.8202 35.0367C23.7611 36.0435 23.7021 36.991 23.6431 37.8794C25.0009 37.8794 26.2996 37.8794 27.5393 37.8794C28.8381 37.8201 30.0778 37.7905 31.2585 37.7905C30.7862 36.9614 30.432 36.0435 30.1959 35.0367C29.9597 34.0299 29.8417 32.7566 29.8417 31.2169C29.8417 30.6246 29.8417 29.8251 29.8417 28.8184C29.8417 27.7524 29.8417 26.6568 29.8417 25.5315C29.8417 24.3471 29.8417 23.2219 29.8417 22.1559C29.8417 21.0306 29.8417 20.1127 29.8417 19.402C28.3068 19.5205 26.7424 19.6093 25.1484 19.6685C23.5545 19.7278 22.0492 19.7574 20.6323 19.7574C19.2746 19.7574 18.0644 19.7574 17.0017 19.7574C15.9391 19.7574 15.1422 19.7278 14.6109 19.6685C13.076 19.5501 11.8067 19.2836 10.8032 18.869C9.85862 18.3953 8.79601 17.5661 7.61533 16.3817C7.14305 15.9079 6.8774 15.4934 6.81837 15.138C6.75933 14.7827 6.84788 14.2793 7.08402 13.6279C7.32016 12.9764 7.70388 12.1769 8.23518 11.2294C8.76649 10.2818 9.26828 9.60076 9.74055 9.1862C10.2128 8.71243 10.6261 8.50515 10.9803 8.56437C11.3345 8.56437 11.8067 8.6532 12.3971 8.83087C12.8694 8.94931 13.4007 9.06776 13.991 9.1862C14.5813 9.30465 15.2307 9.39348 15.9391 9.4527C16.7066 9.51193 17.7692 9.54154 19.127 9.54154C20.4848 9.48231 21.9311 9.4527 23.466 9.4527C25.0599 9.39348 26.6538 9.33426 28.2477 9.27504C29.8417 9.15659 31.2585 9.03815 32.4982 8.9197C33.5018 8.80126 34.5644 8.68281 35.686 8.56437C36.8667 8.44592 37.8408 8.3867 38.6082 8.3867C39.5528 8.3867 40.4973 8.6532 41.4419 9.1862C42.4454 9.7192 43.0653 10.2226 43.3014 10.6964C43.6556 11.4663 43.7147 12.4138 43.4785 13.539C43.2424 14.605 43.0358 15.8191 42.8587 17.1812C42.7996 17.7142 42.7111 18.4841 42.593 19.4909C42.4749 20.4976 42.3569 21.5933 42.2388 22.7777C42.1798 23.9029 42.0912 25.0578 41.9732 26.2422C41.8551 27.3674 41.7665 28.4038 41.7075 29.3514C41.5894 31.0688 41.3238 32.579 40.9105 33.8819C40.5563 35.1848 40.0546 36.3988 39.4052 37.524C40.822 37.4056 42.2979 37.3168 43.8327 37.2575C45.4267 37.1391 46.932 36.9614 48.3488 36.7245V36.6357C48.4079 35.5105 48.4669 34.0299 48.5259 32.194C48.585 30.2989 48.644 28.3446 48.703 26.331C48.7621 24.2583 48.8211 22.2743 48.8801 20.3792C48.9982 18.4249 49.0868 16.7666 49.1458 15.4045C49.2048 14.457 49.2048 13.6871 49.1458 13.0949C49.0868 12.4434 48.9687 11.8512 48.7916 11.3182C48.6735 10.7852 48.4374 10.2522 48.0832 9.7192C47.788 9.1862 47.4043 8.53476 46.932 7.76487C46.2826 6.75809 45.9284 6.04742 45.8694 5.63287C45.8694 5.15909 46.1055 4.59648 46.5778 3.94504C46.6959 3.76737 46.932 3.53048 47.2862 3.23437C47.6404 2.87904 47.9946 2.55331 48.3488 2.2572C48.7621 1.96109 49.1458 1.69459 49.5 1.4577C49.8542 1.16159 50.1199 0.954314 50.297 0.83587C51.2415 0.30287 51.9204 0.0363623 52.3336 0.0363623C52.8059 -0.0228526 53.4848 0.273258 54.3703 0.924703C55.551 1.81304 56.4955 2.58293 57.204 3.23437C57.9124 3.88581 58.5913 4.6557 59.2406 5.54404C60.1261 6.72848 60.746 8.06098 61.1002 9.54154C61.4544 10.9629 61.602 12.7395 61.543 14.8715L61.2773 28.1077L63.7567 27.5747C64.9374 27.2786 65.941 27.3378 66.7675 27.7524C67.653 28.1669 68.3909 28.6407 68.9812 29.1737ZM46.932 66.5725C46.9911 65.9803 46.8435 65.4473 46.4893 64.9735C46.1941 64.4405 45.7513 63.9668 45.161 63.5522C44.6297 63.1376 44.0098 62.7823 43.3014 62.4862C42.6521 62.1901 41.9732 61.9236 41.2648 61.6867C40.5563 61.3906 39.6708 61.1241 38.6082 60.8872C37.5456 60.6503 36.6011 60.295 35.7746 59.8212C33.4723 59.9396 31.4356 60.5319 29.6646 61.5979C27.8935 62.6639 26.949 64.026 26.8309 65.6842C27.4803 67.224 28.661 68.5565 30.373 69.6817C32.085 70.8069 34.5054 71.3695 37.6342 71.3695C38.7558 71.3695 39.8775 71.2215 40.9991 70.9254C42.1208 70.6885 43.0948 70.3331 43.9213 69.8594C44.8068 69.4448 45.5152 68.9414 46.0465 68.3492C46.5778 67.8162 46.873 67.224 46.932 66.5725ZM138.948 55.7349C140.187 55.5572 141.575 55.7645 143.11 56.3567C144.704 56.9489 146.179 57.7188 147.537 58.6664C148.895 59.5547 150.017 60.5615 150.902 61.6867C151.788 62.8119 152.201 63.8187 152.142 64.707C152.083 65.4177 151.551 66.0988 150.548 66.7502C149.603 67.3424 148.423 67.8754 147.006 68.3492C145.648 68.823 144.172 69.1783 142.578 69.4152C140.984 69.6521 139.538 69.7409 138.239 69.6817C134.579 69.504 130.624 69.3856 126.373 69.3264C122.182 69.3264 117.902 69.3264 113.534 69.3264C109.224 69.3856 104.915 69.4448 100.605 69.504C96.3546 69.6225 92.3403 69.6817 88.5621 69.6817C87.2043 69.6817 86.0532 69.6521 85.1086 69.5929C84.2231 69.5929 83.4262 69.5336 82.7178 69.4152C82.0684 69.2968 81.4485 69.1191 80.8582 68.8822C80.2678 68.7045 79.6775 68.4084 79.0872 67.9939C78.6739 67.757 78.1721 67.4609 77.5818 67.1055C77.0505 66.691 76.5487 66.2764 76.0764 65.8619C75.6041 65.4473 75.1909 65.0328 74.8367 64.6182C74.5415 64.1444 74.3939 63.7003 74.3939 63.2857C74.3939 62.575 74.6301 61.8348 75.1023 61.0649C75.5746 60.295 76.1945 59.6139 76.9619 59.0217C77.7294 58.4295 78.6149 57.9557 79.6185 57.6004C80.622 57.245 81.6847 57.0674 82.8063 57.0674C84.4593 57.1266 86.4369 57.1562 88.7392 57.1562C91.1006 57.1562 93.6981 57.1562 96.5317 57.1562C96.5317 56.3271 96.5317 55.4091 96.5317 54.4024C96.5317 53.3364 96.5022 52.1815 96.4432 50.9379C96.3841 49.9311 96.2956 49.0428 96.1775 48.2729C96.1185 47.503 96.0004 46.7923 95.8233 46.1409C95.7052 45.4894 95.4986 44.838 95.2035 44.1865C94.9673 43.4759 94.6721 42.706 94.3179 41.8769C93.9047 40.9885 93.8457 40.2779 94.1408 39.7449C94.436 39.1526 95.0264 38.5308 95.9119 37.8794C96.4432 37.4648 97.2106 37.0503 98.2142 36.6357C99.2768 36.2211 100.221 35.8658 101.048 35.5697C102.406 35.0959 103.409 34.9775 104.059 35.2144C104.708 35.4513 105.446 36.0731 106.272 37.0799C107.099 38.0867 107.837 39.2119 108.486 40.4555C109.135 41.64 109.519 42.9725 109.637 44.453C109.755 46.7035 109.844 48.9243 109.903 51.1155C109.962 53.3068 109.932 55.2611 109.814 56.9785C112.058 56.9193 114.242 56.8897 116.367 56.8897C118.551 56.8305 120.647 56.7416 122.654 56.6232C122.359 55.6756 122.064 54.6393 121.769 53.514C121.533 52.3888 121.237 51.1451 120.883 49.783C120.647 48.8947 120.47 48.1544 120.352 47.5622C120.293 46.9108 120.234 46.2297 120.175 45.519C120.175 44.8084 120.175 43.9793 120.175 43.0317C120.234 42.0841 120.293 40.8405 120.352 39.3007C120.411 38.1163 120.411 36.5765 120.352 34.6814C120.352 32.727 120.322 30.6246 120.263 28.3742C118.729 28.3742 116.987 28.4038 115.039 28.463C113.15 28.5223 111.261 28.5815 109.372 28.6407C107.542 28.6407 105.83 28.6407 104.236 28.6407C102.642 28.6407 101.373 28.6407 100.428 28.6407C97.9485 28.5815 95.7938 28.1669 93.9637 27.397C92.1337 26.5679 90.4807 25.5315 89.0049 24.2879C88.1194 23.518 87.6176 22.8369 87.4995 22.2447C87.4405 21.6525 87.6471 20.9418 88.1194 20.1127C88.4145 19.6389 88.8278 19.0171 89.3591 18.2472C89.8904 17.4773 90.3627 16.8851 90.7759 16.4705C91.3072 15.9375 91.809 15.6118 92.2813 15.4934C92.7535 15.3157 93.521 15.4341 94.5836 15.8487C96.6498 16.6186 99.6605 16.9147 103.616 16.737C104.678 16.6778 105.83 16.6186 107.069 16.5594C108.309 16.5001 109.578 16.4409 110.877 16.3817C112.176 16.3225 113.445 16.2633 114.685 16.204C115.983 16.1448 117.135 16.0856 118.138 16.0264C118.906 15.9671 119.821 15.8783 120.883 15.7599C121.946 15.6414 122.979 15.523 123.983 15.4045C124.986 15.2861 125.872 15.1676 126.639 15.0492C127.466 14.9308 128.026 14.8715 128.322 14.8715C129.207 14.8715 129.975 15.0196 130.624 15.3157C131.273 15.6118 132.1 16.1744 133.103 17.0035C134.107 17.8326 134.845 18.5729 135.317 19.2244C135.848 19.8758 136.114 20.6161 136.114 21.4452C136.114 22.3335 135.73 23.2219 134.963 24.1102C134.963 25.3539 134.963 26.6568 134.963 28.0189C134.963 29.381 134.933 30.6839 134.874 31.9275C134.874 33.112 134.845 34.178 134.786 35.1255C134.786 36.0139 134.756 36.6061 134.697 36.9022C134.284 40.574 133.664 43.9496 132.838 47.0292C132.07 50.1088 130.683 53.2475 128.676 56.4455C130.978 56.3271 133.015 56.2086 134.786 56.0902C136.557 55.9718 137.944 55.8533 138.948 55.7349ZM223.549 14.7827C223.608 17.9215 223.637 21.5636 223.637 25.7092C223.696 29.7955 223.726 33.9115 223.726 38.057C223.785 42.1434 223.814 45.9928 223.814 49.6054C223.873 53.2179 223.903 56.031 223.903 58.0445C223.903 59.9396 223.726 61.9828 223.372 64.174C223.076 66.306 222.545 68.2011 221.778 69.8594C221.305 70.8661 220.774 71.9025 220.184 72.9685C219.593 74.0345 219.033 75.0709 218.501 76.0777C217.97 77.0845 217.498 78.032 217.084 78.9204C216.671 79.8679 216.406 80.697 216.288 81.4077C214.871 78.9796 213.601 76.2554 212.48 73.235C211.417 70.2739 210.945 67.3424 211.063 64.4405C211.181 62.3678 211.24 60.0285 211.24 57.4227C211.299 54.7577 211.358 51.9446 211.417 48.9835C211.122 48.9835 210.856 49.0131 210.62 49.0724C210.443 49.0724 210.237 49.0724 210 49.0724C209.233 49.0724 208.259 48.9243 207.078 48.6282C207.078 49.635 207.078 50.5825 207.078 51.4709C207.078 52.3592 207.049 53.1291 206.99 53.7805C206.872 55.6756 206.665 57.7188 206.37 59.91C206.075 62.042 205.514 63.8483 204.687 65.3289C203.625 67.2832 202.474 69.2079 201.234 71.103C200.053 72.9981 199.109 74.6564 198.4 76.0777C197.574 74.0641 196.806 71.7545 196.098 69.1487C195.389 66.5429 194.917 64.026 194.681 61.5979C192.556 62.0124 190.165 62.427 187.508 62.8415C184.852 63.2561 182.195 63.641 179.539 63.9964C176.882 64.3517 174.403 64.6478 172.101 64.8847C169.798 65.1216 167.939 65.24 166.522 65.24C164.81 65.2993 163.186 65.2104 161.651 64.9735C160.176 64.6774 158.641 64.2037 157.047 63.5522C155.453 62.9008 154.39 62.1013 153.859 61.1537C153.387 60.1469 153.387 59.0513 153.859 57.8669C154.036 57.2746 154.331 56.5048 154.744 55.5572C155.217 54.6096 155.63 53.9878 155.984 53.6917C156.693 53.0403 157.312 52.7145 157.844 52.7145C158.434 52.6553 159.054 52.7738 159.703 53.0699C160.53 53.4252 161.386 53.6621 162.271 53.7805C163.216 53.899 164.219 53.9582 165.282 53.9582C165.931 53.9582 166.699 53.9582 167.584 53.9582C168.529 53.899 169.592 53.8398 170.772 53.7805C170.713 52.7738 170.684 51.8558 170.684 51.0267C170.743 50.1384 170.743 49.4573 170.684 48.9835C170.625 48.5098 170.536 48.1248 170.418 47.8287C170.3 47.5326 170.182 47.2365 170.064 46.9404L167.762 47.118C166.522 47.2365 165.4 47.2661 164.397 47.2069C163.452 47.0884 162.419 46.585 161.297 45.6967C160.53 45.0453 160.058 44.2161 159.88 43.2094C159.703 42.2026 159.674 41.1662 159.792 40.1002C159.91 39.3303 160.058 38.7085 160.235 38.2347C160.412 37.7017 160.559 37.3168 160.677 37.0799V36.991L160.235 26.2422C159.939 25.8869 159.644 25.5019 159.349 25.0874C159.113 24.6136 158.936 24.1694 158.818 23.7549C158.582 22.9258 158.552 22.1855 158.729 21.534C158.965 20.8234 159.32 19.9943 159.792 19.0467C160.264 18.0399 160.825 17.4477 161.474 17.27C162.124 17.0331 162.773 17.0035 163.423 17.1812C164.131 17.4181 164.78 17.5661 165.371 17.6254C166.02 17.6254 166.699 17.6254 167.407 17.6254C169.828 17.6254 171.894 17.6254 173.606 17.6254C175.377 17.6254 176.882 17.5661 178.122 17.4477C178.889 17.3885 179.745 17.2996 180.69 17.1812C181.694 17.0628 182.579 16.9443 183.347 16.8259C183.701 16.7666 184.143 16.737 184.675 16.737C185.206 16.737 185.708 16.9147 186.18 17.27C186.652 17.6254 187.154 18.1288 187.686 18.7802C188.276 19.4316 188.837 20.1719 189.368 21.001C190.017 21.9486 190.372 22.6296 190.431 23.0442C190.49 23.4588 190.46 23.8141 190.342 24.1102C190.165 24.7616 189.752 25.3539 189.102 25.8869C188.512 26.3606 187.597 26.7752 186.357 27.1305C185.708 27.3082 184.881 27.4859 183.878 27.6635C182.933 27.782 181.605 27.8708 179.893 27.93L172.278 28.1077C172.337 29.2921 172.366 30.5358 172.366 31.8387C172.366 33.1416 172.337 34.3853 172.278 35.5697C173.753 35.5105 175.229 35.4513 176.705 35.392C178.24 35.3328 179.686 35.2736 181.044 35.2144C182.461 35.0959 183.73 35.0071 184.852 34.9479C186.033 34.8886 187.036 34.7998 187.863 34.6814C188.63 34.5629 189.427 34.5629 190.253 34.6814C191.08 34.7998 191.729 35.0959 192.202 35.5697C192.674 36.0435 192.851 36.7245 192.733 37.6129C192.674 38.442 192.408 39.3007 191.936 40.189C191.228 41.4919 190.578 42.5283 189.988 43.2982C189.398 44.0089 188.778 44.5715 188.128 44.986C187.479 45.4006 186.741 45.6967 185.914 45.8744C185.147 45.9928 184.202 46.0816 183.081 46.1409C182.668 46.1409 182.343 46.1705 182.107 46.2297C182.166 46.5258 182.195 46.8219 182.195 47.118C182.254 47.3549 182.284 47.651 182.284 48.0064C182.284 48.7763 182.284 49.6054 182.284 50.4937C182.284 51.382 182.254 52.2408 182.195 53.0699C184.557 52.8922 186.83 52.7145 189.014 52.5369C191.198 52.3592 193.087 52.1519 194.681 51.915C194.799 47.118 194.917 42.2322 195.035 37.2575C195.153 32.2236 195.153 27.6931 195.035 23.666C194.917 21.4156 194.592 19.7278 194.061 18.6025C193.589 17.4181 192.969 16.3521 192.202 15.4045C191.257 14.2793 190.932 13.3021 191.228 12.473C191.582 11.5847 192.408 10.5779 193.707 9.4527C195.183 8.20904 196.393 7.52798 197.338 7.40954C198.282 7.23187 199.433 7.70565 200.791 8.83087C202.09 9.89687 203.152 10.9036 203.979 11.8512C204.864 12.7395 205.543 13.6871 206.016 14.6939C206.488 15.7006 206.813 16.8259 206.99 18.0695C207.167 19.254 207.226 20.6457 207.167 22.2447C207.108 24.4951 207.078 26.9233 207.078 29.529C207.078 32.1348 207.078 34.7406 207.078 37.3464C207.61 37.2279 208.141 37.1391 208.672 37.0799C209.262 37.0206 209.794 36.991 210.266 36.991C210.443 36.991 210.62 36.991 210.797 36.991C211.033 36.991 211.27 37.0206 211.506 37.0799C211.565 33.112 211.594 29.381 211.594 25.8869C211.594 22.3335 211.594 19.3132 211.594 16.8259C211.594 14.5754 211.358 12.858 210.886 11.6735C210.414 10.4299 209.764 9.30465 208.938 8.29787C207.993 7.17265 207.639 6.19548 207.875 5.36637C208.111 4.53726 208.908 3.53048 210.266 2.34604C211.683 1.04315 212.834 0.332481 213.72 0.214036C214.605 0.0363697 215.756 0.510148 217.173 1.63537C218.472 2.70137 219.534 3.67854 220.361 4.56687C221.187 5.39598 221.837 6.31392 222.309 7.3207C222.781 8.26826 223.106 9.33426 223.283 10.5187C223.46 11.7031 223.549 13.1245 223.549 14.7827ZM296.465 58.0445C296.465 60.1173 296.17 62.2493 295.58 64.4405C295.049 66.5725 294.311 68.6453 293.366 70.6589C292.422 72.7317 291.329 74.686 290.09 76.5219C288.909 78.3578 287.669 79.9864 286.371 81.4077C286.43 79.9864 286.193 78.5354 285.662 77.0549C285.19 75.5743 284.629 74.0641 283.98 72.5244C283.153 70.57 282.651 68.438 282.474 66.1284C282.356 63.7595 282.356 61.1241 282.474 58.2222C282.533 55.0834 282.592 51.6189 282.651 47.8287C282.769 43.9793 282.828 40.1594 282.828 36.3692C282.828 32.5198 282.799 28.8776 282.74 25.4427C282.74 22.0078 282.71 19.0763 282.651 16.6482C282.533 14.3385 282.297 12.6211 281.943 11.4959C281.589 10.3114 280.998 9.24542 280.172 8.29787C279.109 7.0542 278.755 6.04743 279.109 5.27754C279.523 4.50765 280.497 3.50087 282.032 2.2572C282.799 1.66498 283.448 1.1912 283.98 0.83587C284.57 0.421314 285.101 0.184425 285.574 0.125195C286.105 0.0659731 286.636 0.154814 287.168 0.391703C287.699 0.628592 288.348 1.01354 289.116 1.54654C290.532 2.61254 291.654 3.5897 292.481 4.47804C293.366 5.30715 294.045 6.22509 294.517 7.23187C295.049 8.17942 295.403 9.24543 295.58 10.4299C295.816 11.6143 295.934 13.0356 295.934 14.6939C295.934 16.7666 295.964 19.1059 296.023 21.7117C296.082 24.2583 296.111 26.9233 296.111 29.7067C296.17 32.4309 296.2 35.1848 296.2 37.9682C296.259 40.7516 296.288 43.4166 296.288 45.9632C296.347 48.4505 296.377 50.7602 296.377 52.8922C296.436 54.965 296.465 56.6824 296.465 58.0445ZM272.999 45.9632C273.944 46.6146 274.711 47.2365 275.302 47.8287C275.951 48.4209 276.423 49.0724 276.718 49.783C277.073 50.4937 277.279 51.2932 277.338 52.1815C277.397 53.0699 277.338 54.1359 277.161 55.3795C276.984 56.5048 276.689 57.3931 276.276 58.0445C275.862 58.696 275.331 59.1698 274.682 59.4659C274.091 59.762 273.383 59.9396 272.557 59.9989C271.73 59.9989 270.815 59.9396 269.811 59.8212C268.513 59.6435 267.332 59.1994 266.269 58.4887C265.266 57.7188 264.292 56.7416 263.347 55.5572C262.757 54.8465 261.989 53.9878 261.045 52.981C260.159 51.915 259.244 50.9083 258.3 49.9607C257.473 51.1451 256.647 52.2408 255.82 53.2475C254.994 54.2543 254.167 55.113 253.341 55.8237C252.219 56.8305 251.157 57.6596 250.153 58.311C249.15 58.9625 248.116 59.4955 247.054 59.91C246.05 60.3246 244.988 60.6207 243.866 60.7984C242.744 60.9168 241.505 60.9464 240.147 60.8872C238.553 60.828 236.634 60.4726 234.391 59.8212C232.148 59.1698 230.082 58.311 228.192 57.245C229.019 57.0081 229.786 56.7713 230.495 56.5344C231.203 56.2383 232.059 55.8237 233.063 55.2907C235.896 53.7509 238.494 51.9743 240.855 49.9607C243.217 47.8879 245.342 45.6967 247.231 43.387C249.179 41.0181 250.921 38.59 252.455 36.1027C254.049 33.5561 255.525 31.0096 256.883 28.463C255.23 28.5815 253.577 28.6703 251.924 28.7295C250.271 28.7295 248.795 28.6999 247.497 28.6407C244.84 28.5223 242.656 28.0485 240.944 27.2194C239.232 26.331 237.638 24.6432 236.162 22.1559C235.572 21.2083 235.69 20.2015 236.516 19.1355C236.93 18.6025 237.372 18.0695 237.845 17.5365C238.376 16.9443 238.878 16.5001 239.35 16.204C239.999 15.7895 240.501 15.6414 240.855 15.7599C241.269 15.8783 241.77 16.1152 242.361 16.4705C243.482 17.122 244.87 17.4477 246.523 17.4477C247.231 17.4477 248.205 17.4477 249.445 17.4477C250.684 17.3885 251.983 17.3293 253.341 17.27C254.758 17.1516 256.145 17.0628 257.503 17.0035C258.861 16.8851 260.071 16.7666 261.133 16.6482C261.783 16.3521 262.491 16.0856 263.259 15.8487C264.085 15.5526 264.971 15.4638 265.915 15.5822C266.388 15.6414 266.83 15.7895 267.243 16.0264C267.657 16.204 268.129 16.5298 268.66 17.0035C269.074 17.2996 269.575 17.7734 270.166 18.4249C270.756 19.0763 271.287 19.7278 271.76 20.3792C272.173 21.0306 272.468 21.6821 272.645 22.3335C272.822 22.9258 272.822 23.5476 272.645 24.199C272.35 25.3835 271.907 26.4495 271.317 27.397C270.727 28.2854 270.195 29.2329 269.723 30.2397C268.896 31.8387 268.04 33.4969 267.155 35.2144C266.269 36.9318 265.354 38.6196 264.41 40.2779C265.059 40.6924 265.797 41.1662 266.624 41.6992C267.45 42.2322 268.277 42.7948 269.103 43.387C269.93 43.92 270.697 44.4234 271.405 44.8972C272.114 45.371 272.645 45.7263 272.999 45.9632Z" fill="#292A2B"/>
</svg>
