<svg width="40" height="40" viewBox="0 0 40 40" fill="none" xmlns="http://www.w3.org/2000/svg">
<path d="M0 4C0 1.79086 1.79086 0 4 0H36C38.2091 0 40 1.79086 40 4V36C40 38.2091 38.2091 40 36 40H4C1.79086 40 0 38.2091 0 36V4Z" fill="#FF5A60"/>
<path d="M26.6667 13.3333H21.3333V15.9999H26.6667C28.8667 15.9999 30.6667 17.7999 30.6667 19.9999C30.6667 22.1999 28.8667 23.9999 26.6667 23.9999H21.3333V26.6666H26.6667C30.3467 26.6666 33.3333 23.6799 33.3333 19.9999C33.3333 16.3199 30.3467 13.3333 26.6667 13.3333ZM18.6667 23.9999H13.3333C11.1333 23.9999 9.33332 22.1999 9.33332 19.9999C9.33332 17.7999 11.1333 15.9999 13.3333 15.9999H18.6667V13.3333H13.3333C9.65332 13.3333 6.66666 16.3199 6.66666 19.9999C6.66666 23.6799 9.65332 26.6666 13.3333 26.6666H18.6667V23.9999ZM14.6667 18.6666H25.3333V21.3333H14.6667V18.6666Z" fill="#F8FAFB"/>
</svg>
