<svg width="40" height="40" viewBox="0 0 40 40" fill="none" xmlns="http://www.w3.org/2000/svg">
<path d="M0 4C0 1.79086 1.79086 0 4 0H36C38.2091 0 40 1.79086 40 4V36C40 38.2091 38.2091 40 36 40H4C1.79086 40 0 38.2091 0 36V4Z" fill="#FF5A60"/>
<path d="M26.6665 13.3333H21.3332V16H26.6665C28.8665 16 30.6665 17.8 30.6665 20C30.6665 22.2 28.8665 24 26.6665 24H21.3332V26.6666H26.6665C30.3465 26.6666 33.3332 23.68 33.3332 20C33.3332 16.32 30.3465 13.3333 26.6665 13.3333ZM18.6665 24H13.3332C11.1332 24 9.33317 22.2 9.33317 20C9.33317 17.8 11.1332 16 13.3332 16H18.6665V13.3333H13.3332C9.65317 13.3333 6.6665 16.32 6.6665 20C6.6665 23.68 9.65317 26.6666 13.3332 26.6666H18.6665V24ZM14.6665 18.6666H25.3332V21.3333H14.6665V18.6666Z" fill="#F8FAFB"/>
</svg>
