<svg xmlns="http://www.w3.org/2000/svg" viewBox="0 0 35.51 35.51"><g id="Layer_2" data-name="Layer 2"><g id="Layer_1-2" data-name="Layer 1"><path d="M11.41,2.76a16.81,16.81,0,0,0-.83,7.69A16.87,16.87,0,0,0,25.06,24.93a18.67,18.67,0,0,0,2.11.13,16.59,16.59,0,0,0,5.58-1,16.21,16.21,0,0,1-14.64,9.42c-.48,0-1,0-1.45-.06a16.25,16.25,0,0,1-14.6-14.6A16.22,16.22,0,0,1,11.41,2.76M13.29,0A1,1,0,0,0,13,0a18.1,18.1,0,0,0,3.49,35.4c.54.05,1.09.07,1.62.07a18.11,18.11,0,0,0,17.36-13,1,1,0,0,0-1-1.29,1,1,0,0,0-.47.12,14.6,14.6,0,0,1-6.87,1.72,14.73,14.73,0,0,1-14.6-12.85,14.62,14.62,0,0,1,1.6-8.74A1,1,0,0,0,13.29,0Z"/></g></g></svg>