<svg xmlns="http://www.w3.org/2000/svg" viewBox="0 0 36 36"><defs><style>.cls-1{fill:#1d1d1b;}</style></defs><g id="Layer_2" data-name="Layer 2"><g id="Layer_1-2" data-name="Layer 1"><path class="cls-1" d="M28,2V28H2V2H28m0-2H2A2,2,0,0,0,0,2V28a2,2,0,0,0,2,2H28a2,2,0,0,0,2-2V2a2,2,0,0,0-2-2Z"/><path class="cls-1" d="M34,6H32V8h2V34H8V32H6v2a2,2,0,0,0,2,2H34a2,2,0,0,0,2-2V8A2,2,0,0,0,34,6Z"/><rect class="cls-1" x="14" y="6" width="2" height="18"/><rect class="cls-1" x="14" y="6" width="2" height="18" transform="translate(30 0) rotate(90)"/></g></g></svg>