<svg xmlns="http://www.w3.org/2000/svg" viewBox="0 0 36 36"><defs><style>.cls-1{fill:#fff;}</style></defs><g id="레이어_2" data-name="레이어 2"><g id="Layer_1" data-name="Layer 1"><path class="cls-1" d="M28,2V28H2V2H28m0-2H2A2,2,0,0,0,0,2V28a2,2,0,0,0,2,2H28a2,2,0,0,0,2-2V2a2,2,0,0,0-2-2Z"/><path class="cls-1" d="M34,6H32V8h2V34H8V32H6c-.07,1.52-.17,4,2,4H34a2,2,0,0,0,2-2V8A2,2,0,0,0,34,6Z"/><polygon class="cls-1" points="24 14 16 14 16 6 14 6 14 14 6 14 6 16 14 16 14 24 16 24 16 16 24 16 24 14"/></g></g></svg>