<svg xmlns="http://www.w3.org/2000/svg" viewBox="0 0 40 36"><defs><style>.cls-1{fill:#b6b6b6;}</style></defs><g id="레이어_2" data-name="레이어 2"><g id="Layer_1" data-name="Layer 1"><path class="cls-1" d="M20,2a.13.13,0,0,1,.13.07L29,17.86l9,16a.07.07,0,0,1,0,.1.13.13,0,0,1-.13.07H2.15A.13.13,0,0,1,2,33.93a.07.07,0,0,1,0-.1l9-16L19.87,2.07A.13.13,0,0,1,20,2m0-2a2.13,2.13,0,0,0-1.88,1.09L9.25,16.88l-9,16A2.12,2.12,0,0,0,2.15,36h35.7a2.12,2.12,0,0,0,1.88-3.15l-9-16L21.88,1.09A2.13,2.13,0,0,0,20,0Z"/><polygon class="cls-1" points="22 26 18 26 17 13 23 13 22 26"/><circle class="cls-1" cx="20" cy="30" r="2"/></g></g></svg>